<?xml version="1.0" encoding="UTF-8" standalone="no"?>
<!DOCTYPE svg PUBLIC "-//W3C//DTD SVG 1.1//EN"
 "http://www.w3.org/Graphics/SVG/1.1/DTD/svg11.dtd">
<!-- Generated by graphviz version 2.38.0 (20140413.2041)
 -->
<!-- Title: reseauRoutier Pages: 1 -->
<svg width="252pt" height="157pt"
 viewBox="0.00 0.00 252.00 157.02" xmlns="http://www.w3.org/2000/svg" xmlns:xlink="http://www.w3.org/1999/xlink">
<g id="graph0" class="graph" transform="scale(0.514811 0.514811) rotate(0) translate(4 301)">
<title>reseauRoutier</title>
<polygon fill="white" stroke="none" points="-4,4 -4,-301 485.5,-301 485.5,4 -4,4"/>
<!-- Lille -->
<g id="node1" class="node"><title>Lille</title>
<polygon fill="none" stroke="black" points="152.5,-297 98.5,-297 98.5,-261 152.5,-261 152.5,-297"/>
<text text-anchor="middle" x="125.5" y="-274" font-family="Times,serif" font-size="20.00">Lille</text>
</g>
<!-- Brest -->
<g id="node2" class="node"><title>Brest</title>
<polygon fill="none" stroke="black" points="59,-210 0,-210 0,-174 59,-174 59,-210"/>
<text text-anchor="middle" x="29.5" y="-187" font-family="Times,serif" font-size="20.00">Brest</text>
</g>
<!-- Lille&#45;&#45;Brest -->
<g id="edge1" class="edge"><title>Lille&#45;&#45;Brest</title>
<path fill="none" stroke="black" d="M106.073,-260.799C89.4174,-246.052 65.5454,-224.915 48.8981,-210.175"/>
<text text-anchor="middle" x="94" y="-231.8" font-family="Times,serif" font-size="14.00">758</text>
</g>
<!-- Paris -->
<g id="node3" class="node"><title>Paris</title>
<polygon fill="none" stroke="black" points="153.5,-210 97.5,-210 97.5,-174 153.5,-174 153.5,-210"/>
<text text-anchor="middle" x="125.5" y="-187" font-family="Times,serif" font-size="20.00">Paris</text>
</g>
<!-- Lille&#45;&#45;Paris -->
<g id="edge2" class="edge"><title>Lille&#45;&#45;Paris</title>
<path fill="none" stroke="black" d="M125.5,-260.799C125.5,-246.052 125.5,-224.915 125.5,-210.175"/>
<text text-anchor="middle" x="136" y="-231.8" font-family="Times,serif" font-size="14.00">226</text>
</g>
<!-- Strasbourg -->
<g id="node4" class="node"><title>Strasbourg</title>
<polygon fill="none" stroke="black" points="293.5,-210 191.5,-210 191.5,-174 293.5,-174 293.5,-210"/>
<text text-anchor="middle" x="242.5" y="-187" font-family="Times,serif" font-size="20.00">Strasbourg</text>
</g>
<!-- Lille&#45;&#45;Strasbourg -->
<g id="edge3" class="edge"><title>Lille&#45;&#45;Strasbourg</title>
<path fill="none" stroke="black" d="M149.177,-260.799C169.476,-246.052 198.57,-224.915 218.859,-210.175"/>
<text text-anchor="middle" x="202" y="-231.8" font-family="Times,serif" font-size="14.00">525</text>
</g>
<!-- Brest&#45;&#45;Paris -->
<g id="edge4" class="edge"><title>Brest&#45;&#45;Paris</title>
<path fill="none" stroke="black" d="M59.0865,-192C71.3169,-192 85.4272,-192 97.4879,-192"/>
<text text-anchor="middle" x="78.25" y="-198.8" font-family="Times,serif" font-size="14.00">593</text>
</g>
<!-- Bordeaux -->
<g id="node5" class="node"><title>Bordeaux</title>
<polygon fill="none" stroke="black" points="130.5,-36 36.5,-36 36.5,-0 130.5,-0 130.5,-36"/>
<text text-anchor="middle" x="83.5" y="-13" font-family="Times,serif" font-size="20.00">Bordeaux</text>
</g>
<!-- Brest&#45;&#45;Bordeaux -->
<g id="edge8" class="edge"><title>Brest&#45;&#45;Bordeaux</title>
<path fill="none" stroke="black" d="M34.8751,-173.879C45.2259,-140.91 67.813,-68.9659 78.1466,-36.0516"/>
<text text-anchor="middle" x="73" y="-101.3" font-family="Times,serif" font-size="14.00">644</text>
</g>
<!-- Paris&#45;&#45;Strasbourg -->
<g id="edge7" class="edge"><title>Paris&#45;&#45;Strasbourg</title>
<path fill="none" stroke="black" d="M153.524,-192C164.882,-192 178.366,-192 191.358,-192"/>
<text text-anchor="middle" x="172.5" y="-198.8" font-family="Times,serif" font-size="14.00">491</text>
</g>
<!-- Paris&#45;&#45;Bordeaux -->
<g id="edge5" class="edge"><title>Paris&#45;&#45;Bordeaux</title>
<path fill="none" stroke="black" d="M121.319,-173.879C113.269,-140.91 95.701,-68.9659 87.6638,-36.0516"/>
<text text-anchor="middle" x="120" y="-101.3" font-family="Times,serif" font-size="14.00">584</text>
</g>
<!-- Lyon -->
<g id="node6" class="node"><title>Lyon</title>
<polygon fill="none" stroke="black" points="242.5,-123 184.5,-123 184.5,-87 242.5,-87 242.5,-123"/>
<text text-anchor="middle" x="213.5" y="-100" font-family="Times,serif" font-size="20.00">Lyon</text>
</g>
<!-- Paris&#45;&#45;Lyon -->
<g id="edge6" class="edge"><title>Paris&#45;&#45;Lyon</title>
<path fill="none" stroke="black" d="M143.308,-173.799C158.576,-159.052 180.458,-137.915 195.718,-123.175"/>
<text text-anchor="middle" x="186" y="-144.8" font-family="Times,serif" font-size="14.00">466</text>
</g>
<!-- Toulouse -->
<g id="node7" class="node"><title>Toulouse</title>
<polygon fill="none" stroke="black" points="258,-36 169,-36 169,-0 258,-0 258,-36"/>
<text text-anchor="middle" x="213.5" y="-13" font-family="Times,serif" font-size="20.00">Toulouse</text>
</g>
<!-- Bordeaux&#45;&#45;Toulouse -->
<g id="edge13" class="edge"><title>Bordeaux&#45;&#45;Toulouse</title>
<path fill="none" stroke="black" d="M130.801,-18C143.142,-18 156.406,-18 168.618,-18"/>
<text text-anchor="middle" x="149.75" y="-24.8" font-family="Times,serif" font-size="14.00">244</text>
</g>
<!-- Lyon&#45;&#45;Strasbourg -->
<g id="edge9" class="edge"><title>Lyon&#45;&#45;Strasbourg</title>
<path fill="none" stroke="black" d="M219.36,-123.175C224.389,-137.915 231.6,-159.052 236.631,-173.799"/>
<text text-anchor="middle" x="240" y="-144.8" font-family="Times,serif" font-size="14.00">487</text>
</g>
<!-- Lyon&#45;&#45;Bordeaux -->
<g id="edge11" class="edge"><title>Lyon&#45;&#45;Bordeaux</title>
<path fill="none" stroke="black" d="M187.193,-86.799C164.638,-72.0519 132.311,-50.9152 109.768,-36.1754"/>
<text text-anchor="middle" x="167" y="-57.8" font-family="Times,serif" font-size="14.00">556</text>
</g>
<!-- Lyon&#45;&#45;Toulouse -->
<g id="edge10" class="edge"><title>Lyon&#45;&#45;Toulouse</title>
<path fill="none" stroke="black" d="M213.5,-86.799C213.5,-72.0519 213.5,-50.9152 213.5,-36.1754"/>
<text text-anchor="middle" x="224" y="-57.8" font-family="Times,serif" font-size="14.00">538</text>
</g>
<!-- Marseille -->
<g id="node8" class="node"><title>Marseille</title>
<polygon fill="none" stroke="black" points="388.5,-36 296.5,-36 296.5,-0 388.5,-0 388.5,-36"/>
<text text-anchor="middle" x="342.5" y="-13" font-family="Times,serif" font-size="20.00">Marseille</text>
</g>
<!-- Lyon&#45;&#45;Marseille -->
<g id="edge12" class="edge"><title>Lyon&#45;&#45;Marseille</title>
<path fill="none" stroke="black" d="M239.605,-86.799C261.986,-72.0519 294.064,-50.9152 316.434,-36.1754"/>
<text text-anchor="middle" x="296" y="-57.8" font-family="Times,serif" font-size="14.00">314</text>
</g>
<!-- Toulouse&#45;&#45;Marseille -->
<g id="edge14" class="edge"><title>Toulouse&#45;&#45;Marseille</title>
<path fill="none" stroke="black" d="M258.256,-18C270.481,-18 283.754,-18 296.07,-18"/>
<text text-anchor="middle" x="277.25" y="-24.8" font-family="Times,serif" font-size="14.00">404</text>
</g>
<!-- Nice -->
<g id="node9" class="node"><title>Nice</title>
<polygon fill="none" stroke="black" points="481.5,-36 427.5,-36 427.5,-0 481.5,-0 481.5,-36"/>
<text text-anchor="middle" x="454.5" y="-13" font-family="Times,serif" font-size="20.00">Nice</text>
</g>
<!-- Marseille&#45;&#45;Nice -->
<g id="edge15" class="edge"><title>Marseille&#45;&#45;Nice</title>
<path fill="none" stroke="black" d="M388.701,-18C401.837,-18 415.716,-18 427.323,-18"/>
<text text-anchor="middle" x="408" y="-24.8" font-family="Times,serif" font-size="14.00">199</text>
</g>
</g>
</svg>
