<?xml version="1.0" encoding="UTF-8" standalone="no"?>
<!DOCTYPE svg PUBLIC "-//W3C//DTD SVG 1.1//EN"
 "http://www.w3.org/Graphics/SVG/1.1/DTD/svg11.dtd">
<!-- Generated by graphviz version 2.38.0 (20140413.2041)
 -->
<!-- Title: G Pages: 1 -->
<svg width="154pt" height="275pt"
 viewBox="0.00 0.00 154.14 275.38" xmlns="http://www.w3.org/2000/svg" xmlns:xlink="http://www.w3.org/1999/xlink">
<g id="graph0" class="graph" transform="scale(1 1) rotate(0) translate(4 271.384)">
<title>G</title>
<polygon fill="white" stroke="none" points="-4,4 -4,-271.384 150.145,-271.384 150.145,4 -4,4"/>
<!-- coco -->
<g id="node1" class="node"><title>coco</title>
<ellipse fill="none" stroke="blue" stroke-width="2" cx="118.847" cy="-139.392" rx="27.0966" ry="27.0966"/>
<text text-anchor="middle" x="118.847" y="-135.692" font-family="Times,serif" font-size="14.00" fill="blue">coco</text>
</g>
<!-- dylan -->
<g id="node2" class="node"><title>dylan</title>
<ellipse fill="none" stroke="blue" stroke-width="2" cx="81.8472" cy="-30.5473" rx="30.5947" ry="30.5947"/>
<text text-anchor="middle" x="81.8472" y="-26.8473" font-family="Times,serif" font-size="14.00" fill="blue">dylan</text>
</g>
<!-- coco&#45;&#45;dylan -->
<g id="edge4" class="edge"><title>coco&#45;&#45;dylan</title>
<path fill="none" stroke="red" stroke-width="2" d="M110.172,-113.342C104.619,-97.305 97.4013,-76.4629 91.6419,-59.8314"/>
<text text-anchor="middle" x="105.347" y="-82.8946" font-family="Times,serif" font-size="14.00" fill="red">2</text>
</g>
<!-- arthur -->
<g id="node3" class="node"><title>arthur</title>
<ellipse fill="none" stroke="black" cx="31.8472" cy="-235.537" rx="31.6951" ry="31.6951"/>
<text text-anchor="middle" x="31.8472" y="-231.837" font-family="Times,serif" font-size="14.00">arthur</text>
</g>
<!-- bob -->
<g id="node4" class="node"><title>bob</title>
<ellipse fill="none" stroke="black" cx="31.8472" cy="-139.392" rx="24.0958" ry="24.0958"/>
<text text-anchor="middle" x="31.8472" y="-135.692" font-family="Times,serif" font-size="14.00">bob</text>
</g>
<!-- arthur&#45;&#45;bob -->
<g id="edge1" class="edge"><title>arthur&#45;&#45;bob</title>
<path fill="none" stroke="black" d="M31.8472,-203.449C31.8472,-190.488 31.8472,-175.692 31.8472,-163.691"/>
</g>
<!-- bob&#45;&#45;coco -->
<g id="edge2" class="edge"><title>bob&#45;&#45;coco</title>
<path fill="none" stroke="black" d="M55.9761,-139.392C67.7644,-139.392 79.5527,-139.392 91.3411,-139.392"/>
</g>
<!-- bob&#45;&#45;dylan -->
<g id="edge3" class="edge"><title>bob&#45;&#45;dylan</title>
<path fill="none" stroke="black" d="M41.7256,-117.283C49.5805,-100.498 60.6257,-76.8953 69.1391,-58.7031"/>
<text text-anchor="middle" x="62.3472" y="-82.8946" font-family="Times,serif" font-size="14.00">5</text>
</g>
</g>
</svg>
